<svg xmlns="http://www.w3.org/2000/svg" width="40px" height="40px" viewBox="0 0 37.27 37.27"><defs><style>.cls-1{fill:#fe0000;}</style></defs><g id="圖層_2" data-name="圖層 2"><g id="圖層_1-2" data-name="圖層 1"><path id="Icon_awesome-facebook-square" data-name="Icon awesome-facebook-square" class="cls-1" d="M33.27,0H4A4,4,0,0,0,0,4H0V33.27a4,4,0,0,0,4,4H15.41V24.6H10.17v-6h5.24V14.09c0-5.17,3.08-8,7.79-8a32.49,32.49,0,0,1,4.62.4v5.08h-2.6c-2.56,0-3.36,1.59-3.36,3.22v3.87h5.72l-.92,6h-4.8V37.26H33.27a4,4,0,0,0,4-4h0V4a4,4,0,0,0-4-4Z"/></g></g></svg>