<svg xmlns="http://www.w3.org/2000/svg" viewBox="0 0 38.88 38.88" width="40px" height="40px"><defs><style>.cls-1{fill:none;stroke:#fe0000;stroke-linecap:round;stroke-linejoin:round;stroke-width:5px;}</style></defs><g id="圖層_2" data-name="圖層 2"><g id="圖層_1-2" data-name="圖層 1"><g id="Icon_feather-instagram" data-name="Icon feather-instagram"><path id="路径_61" data-name="路径 61" class="cls-1" d="M11,2.5H27.91A8.47,8.47,0,0,1,36.38,11h0V27.91a8.47,8.47,0,0,1-8.47,8.47H11A8.47,8.47,0,0,1,2.5,27.91h0V11A8.47,8.47,0,0,1,11,2.5Z"/><path id="路径_62" data-name="路径 62" class="cls-1" d="M26.21,18.37a6.77,6.77,0,1,1-7.69-5.71,7.37,7.37,0,0,1,2,0A6.77,6.77,0,0,1,26.21,18.37Z"/><path id="路径_63" data-name="路径 63" class="cls-1" d="M28.76,10.12h0"/></g></g></g></svg>