<svg xmlns="http://www.w3.org/2000/svg" viewBox="0 0 37.27 37.27" width="40px" height="40px"><defs><style>.cls-1{fill:#fe0000;}</style></defs><g id="圖層_2" data-name="圖層 2"><g id="圖層_1-2" data-name="圖層 1"><path id="Icon_ionic-logo-linkedin" data-name="Icon ionic-logo-linkedin" class="cls-1" d="M34.29,0H3.18A3,3,0,0,0,0,2.89H0V34.07a3.27,3.27,0,0,0,3.18,3.2h31.1a3.12,3.12,0,0,0,3-3.2V2.9A2.87,2.87,0,0,0,34.46,0ZM11.55,31.07H6.21V14.47h5.34ZM9.07,11.94H9A2.73,2.73,0,0,1,6.21,9.28v-.2A2.76,2.76,0,0,1,8.86,6.22H9.1A2.74,2.74,0,0,1,12,8.86a.81.81,0,0,1,0,.22,2.75,2.75,0,0,1-2.64,2.86Zm22,19.13H25.73V22c0-2.17-.78-3.66-2.71-3.66a2.92,2.92,0,0,0-2.74,2,3.69,3.69,0,0,0-.19,1.31v9.46H14.75V14.47h5.34v2.31a5.4,5.4,0,0,1,4.82-2.7c3.5,0,6.15,2.31,6.15,7.29v9.7Z"/></g></g></svg>

