<?xml version="1.0" encoding="utf-8"?>
<!-- Generator: Adobe Illustrator 26.0.0, SVG Export Plug-In . SVG Version: 6.00 Build 0)  -->
<svg version="1.1" id="圖層_1" xmlns="http://www.w3.org/2000/svg" xmlns:xlink="http://www.w3.org/1999/xlink" x="0px" y="0px"
	 viewBox="0 0 280.89 89.9" style="enable-background:new 0 0 280.89 89.9;" xml:space="preserve">
<style type="text/css">
	.st0{fill:#8C2656;}
	.st1{fill:#FE0000;}
	.st2{fill:#0947BE;}
	.st3{fill:#FF0DF9;}
	.st4{fill:#AA306D;}
	.st5{font-family:'SourceSansPro-Light';}
	.st6{font-size:24.7693px;}
	.st7{fill:#231815;}
	.st8{fill:#595757;}
	.st9{fill:#898989;}
	.st10{fill:#B5B5B6;}
	.st11{fill:#DCDDDD;}
	.st12{fill:#FFFFFF;}
	.st13{fill:#FC3232;}
	.st14{fill:#FC6565;}
	.st15{fill:#FC9797;}
</style>
<g>
	<path class="st1" d="M107.09,6.77c0.22-0.67,0.58-1.12,1.08-1.36c0.5-0.24,1.32-0.37,2.48-0.39v15.01c0,1.02-0.1,1.77-0.29,2.26
		c-0.2,0.48-0.56,0.83-1.08,1.04c-0.52,0.21-1.36,0.37-2.51,0.47l-0.31,3.03c2.93-0.18,5.3-0.27,7.11-0.27
		c1.02,0,3.46,0.07,7.31,0.2l0.35-3.1l-0.16-0.24c-0.81,0.08-1.49,0.12-2.04,0.12c-0.76,0-1.3-0.2-1.63-0.61
		c-0.33-0.41-0.49-1.09-0.49-2.06c0-5.32,0.1-10.6,0.31-15.83c1.13,0.03,1.92,0.15,2.38,0.37c0.46,0.22,0.79,0.68,0.98,1.38
		c0.2,0.69,0.39,1.94,0.57,3.75l3.93-0.27c-0.11-1.91-0.21-4.9-0.31-8.96l-0.43-0.47l-4.36,0.43H107.7l-4.24-0.43l-0.47,0.47
		c-0.05,3.09-0.18,6.17-0.39,9.23l3.93-0.27C106.68,8.6,106.87,7.44,107.09,6.77z"/>
	<path class="st1" d="M128.29,23.55c-0.29,0.33-0.88,0.57-1.77,0.73l-0.24,2.48c0.37-0.05,1.11-0.1,2.24-0.14
		c1.13-0.04,2.15-0.06,3.06-0.06c0.86,0,1.79,0.02,2.77,0.06c0.98,0.04,1.67,0.06,2.06,0.06l0.27-2.4l-0.2-0.31
		c-0.05,0.03-0.17,0.05-0.35,0.08c-0.18,0.03-0.39,0.04-0.63,0.04c-0.45,0-0.75-0.14-0.9-0.43c-0.16-0.29-0.24-0.85-0.24-1.69
		l0.04-3.38c0.34-0.03,0.93-0.07,1.77-0.14c0.84-0.07,1.57-0.11,2.2-0.14l2.44,0.04v3.3c0,0.92-0.16,1.55-0.49,1.91
		c-0.33,0.35-0.9,0.53-1.71,0.53l-0.24,2.51l5.11-0.04l5.26,0.04l0.31-2.36l-0.27-0.31c-0.05,0-0.17,0.01-0.35,0.04
		c-0.18,0.03-0.39,0.04-0.63,0.04c-0.47,0-0.81-0.14-1-0.43c-0.2-0.29-0.29-0.83-0.29-1.61c0-4.16,0.12-7.87,0.35-11.12
		c0.05-0.6,0.2-1,0.43-1.2c0.24-0.2,0.75-0.35,1.53-0.45l0.2-2.51c-0.42,0.03-1.18,0.06-2.28,0.1c-1.1,0.04-2.14,0.06-3.1,0.06
		c-3.25,0-4.87-0.01-4.87-0.04l-0.27,2.2l0.27,0.35h0.9c0.47,0,0.79,0.11,0.94,0.31c0.16,0.21,0.24,0.63,0.24,1.26l-0.04,3.85
		c-0.73,0.1-1.76,0.16-3.06,0.16l-3.22-0.12l0.2-3.85c0.03-0.63,0.14-1.05,0.35-1.26c0.21-0.21,0.68-0.37,1.41-0.47l0.2-2.55
		c-0.45,0.03-1.26,0.06-2.46,0.1c-1.19,0.04-2.35,0.06-3.48,0.06l-4.09-0.04l-0.27,2.2l0.27,0.35h0.9c0.45,0,0.75,0.11,0.9,0.31
		c0.16,0.21,0.24,0.63,0.24,1.26v10.84C128.72,22.63,128.58,23.22,128.29,23.55z"/>
	<path class="st1" d="M157.4,26.42c1.94,0,3.98,0.03,6.13,0.1c2.15,0.07,3.54,0.12,4.16,0.15l0.47-0.56
		c0.1-1.73,0.26-3.37,0.45-4.92c0.2-1.56,0.33-2.56,0.41-3l-0.31-0.56L165.03,18c-0.16,1.29-0.36,2.22-0.61,2.79
		c-0.25,0.58-0.64,0.96-1.16,1.17c-0.52,0.2-1.34,0.3-2.44,0.3c-0.52,0-0.9-0.06-1.14-0.18c-0.24-0.12-0.39-0.33-0.47-0.63
		c-0.08-0.3-0.12-0.83-0.12-1.57c0-1.46,0.01-2.76,0.04-3.91c0.18,0,0.52-0.03,1.02-0.1c0.5-0.07,0.98-0.1,1.45-0.1
		c0.84,0,1.64,0.02,2.42,0.05c0.77,0.03,1.29,0.05,1.55,0.05l0.47-4.26l-0.35-0.51c-0.29,0.03-0.8,0.08-1.53,0.15
		c-0.73,0.07-1.43,0.1-2.08,0.1h-2.79l0.2-4.92c0-0.47,0.08-0.78,0.24-0.91c0.16-0.13,0.52-0.2,1.1-0.2c1.02,0,1.77,0.06,2.24,0.18
		c0.47,0.12,0.79,0.33,0.96,0.63c0.17,0.3,0.26,0.78,0.26,1.42c0,0.3-0.01,0.61-0.04,0.91c-0.03,0.3-0.04,0.51-0.04,0.61l4.01-0.36
		c0.05-1.56,0.17-3.12,0.35-4.7c0.18-1.57,0.31-2.58,0.39-3.02l-0.35-0.51c-2.25,0.3-5.59,0.46-10.02,0.46
		c-1.52,0-2.95-0.02-4.3-0.05c-1.35-0.03-2.26-0.05-2.73-0.05l-0.27,2.89l0.31,0.51l0.9-0.05c0.37,0,0.62,0.14,0.75,0.43
		c0.13,0.29,0.2,0.86,0.2,1.7l-0.04,13.66c0,1.15-0.15,1.97-0.45,2.46c-0.3,0.49-0.87,0.82-1.71,0.99l-0.31,3.4
		c0.37-0.03,1.2-0.11,2.51-0.23C154.74,26.48,156.07,26.42,157.4,26.42z"/>
	<path class="st1" d="M29.12,37.62c1.28-0.93,2.63-1.72,4.03-2.39c-0.16-1.04-0.25-1.73-0.25-2.06c0-0.49,0.07-0.85,0.21-1.06
		c0.14-0.21,0.45-0.37,0.92-0.48c0.48-0.11,1.31-0.23,2.51-0.37l0.32-3.7l-0.32-0.48c-0.53,0.04-1.73,0.11-3.59,0.21
		c-1.87,0.11-3.7,0.16-5.49,0.16c-1.55,0-3.09-0.02-4.62-0.05c-1.53-0.03-2.58-0.05-3.14-0.05l-0.42,3.59l0.26,0.42
		c1.27,0.04,2.15,0.19,2.64,0.48c0.49,0.28,0.79,0.81,0.9,1.58c0.11,0.95,0.16,1.57,0.16,1.85c-0.41,1.69-0.89,3.56-1.43,5.6
		c0.49,0.12,0.98,0.24,1.47,0.37C25.21,40.06,27.16,38.87,29.12,37.62z"/>
	<path class="st1" d="M23.28,42.44c-0.49-0.12-0.98-0.24-1.47-0.37c-0.13,0.5-0.27,1.01-0.41,1.53
		C22.03,43.21,22.65,42.82,23.28,42.44z"/>
	<path class="st1" d="M31,64.01l10.78-0.95l0.31-0.99c-3.81-0.03-7.63-0.11-11.44-0.23C30.79,62.63,30.91,63.36,31,64.01z"/>
	<path class="st1" d="M50.79,32.13c0.13-0.26,0.26-0.47,0.4-0.62c0.32-0.35,0.83-0.62,1.53-0.79l0.37-3.96
		c-0.39,0-1.14,0.02-2.27,0.05c-1.13,0.04-2.4,0.05-3.8,0.05c-1.3,0-2.78-0.03-4.44-0.08c-1.66-0.05-2.73-0.1-3.22-0.13l-0.37,3.75
		l0.26,0.42h1.74c0.85,0,1.42,0.09,1.72,0.26c0.27,0.16,0.41,0.46,0.44,0.88C45.69,31.74,48.27,31.81,50.79,32.13z"/>
	<path class="st1" d="M40.75,42.86c-0.2,0.77-0.4,1.49-0.59,2.18c2.09,0.42,4.19,0.83,6.29,1.22l3.78-12.14
		c0.19-0.58,0.37-1.03,0.56-1.39c-2.52-0.32-5.1-0.39-7.65-0.16c0,0.04,0.01,0.08,0.01,0.13C43.15,33.47,42.35,36.86,40.75,42.86z"
		/>
	<path class="st1" d="M10.67,51.31c1.59-1.42,3.3-2.72,5.08-3.97c-0.21-1.06-0.45-2.22-0.7-3.47c-0.28-1.4-0.52-2.64-0.73-3.74
		c-3.1-0.83-6.2-1.69-9.29-2.57c0.89,3.26,1.99,7.62,3.31,13.07c0.34,1.43,0.66,2.74,0.95,3.96C9.17,53.3,9.51,52.09,10.67,51.31z"
		/>
	<path class="st1" d="M20.53,48.04c-0.04,0.14-0.08,0.28-0.12,0.42c-1.15,4.17-1.89,6.74-2.25,7.69h-0.85
		c-0.33-1.49-0.85-4.04-1.58-7.63c-1.77,1.25-3.48,2.56-5.08,3.97c-1.16,0.77-1.5,1.99-1.37,3.28c0.15,0.6,0.28,1.18,0.42,1.73
		c0.78,2.08,2.39,3.92,3.34,3.92c3.2,0.27,6.39,0.49,9.57,0.66l3.02-10.74C24.32,49.8,22.58,48.61,20.53,48.04z"/>
	<path class="st1" d="M40.17,46.24c-1.27,4.71-2.11,7.62-2.51,8.73h-0.9c-0.39-1.81-1.05-5.1-1.99-9.86
		c-3.84-0.83-7.67-1.73-11.49-2.67c-0.63,0.39-1.26,0.78-1.88,1.16c-0.28,1.04-0.57,2.13-0.88,3.25c2.06,0.57,3.79,1.76,5.12,3.31
		l1.13-4.02h0.63c1.52,6.5,2.6,11.54,3.23,15.1c3.82,0.12,7.63,0.2,11.44,0.23l4.36-14.02C44.35,47.06,42.26,46.66,40.17,46.24z"/>
	<path class="st1" d="M24.47,41.25c3.82,0.94,7.65,1.83,11.49,2.67c-0.08-0.42-0.17-0.85-0.25-1.29c-0.65-3.32-1.11-5.78-1.36-7.4
		c-1.4,0.67-2.75,1.46-4.03,2.39C28.35,38.87,26.4,40.06,24.47,41.25z"/>
	<path class="st1" d="M12.45,62.03c-0.95,0-2.56-1.84-3.34-3.92c0.8,3.32,1.36,5.69,1.69,7.1l8.65-0.76
		c-0.5-0.71-1.04-1.38-1.61-2.01C16.05,62.31,14.25,62.18,12.45,62.03z"/>
	<path class="st1" d="M22.03,62.68c-1.39-0.07-2.78-0.16-4.17-0.25c0.57,0.63,1.11,1.3,1.61,2.01l2.12-0.19L22.03,62.68z"/>
	<path class="st1" d="M13.41,33.17c0-0.49,0.08-0.85,0.24-1.06c0.16-0.21,0.48-0.37,0.95-0.48c0.48-0.11,1.31-0.23,2.51-0.37
		l0.26-3.7l-0.32-0.48c-0.53,0.04-1.71,0.11-3.54,0.21c-1.83,0.11-3.68,0.16-5.55,0.16c-1.37,0-2.71-0.02-4.02-0.05
		c-1.3-0.03-2.18-0.05-2.64-0.05l-0.42,3.59l0.32,0.42c0.92,0.07,1.63,0.37,2.14,0.9c0.51,0.53,0.92,1.36,1.24,2.48
		c0.14,0.5,0.29,1.04,0.44,1.61c3.09,0.89,6.18,1.74,9.29,2.57C13.71,35.75,13.41,33.82,13.41,33.17z"/>
	<path class="st1" d="M74.85,50.8c-3.05-0.28-6.09-0.61-9.13-0.98c-0.68,0.03-1.23,0.05-1.65,0.05h-2.48l0.17-0.56
		c-0.94-0.13-1.88-0.26-2.82-0.4c4.23,3.74,10.99,4.72,16.2,2.93C75.05,51.52,74.95,51.16,74.85,50.8z"/>
	<path class="st1" d="M75.44,50.21c-0.44-1.56-0.94-3.35-1.5-5.39c-1.36-4.95-2.25-8.25-2.67-9.91l-0.58-0.42l-10.04,0.69
		L57.1,45.34c0.65,1.14,1.48,2.14,2.45,2.99c0.94,0.14,1.88,0.27,2.82,0.4l2.26-7.26h0.79l1.85,7.71c-0.34,0.02-0.65,0.04-0.94,0.05
		C69.35,49.6,72.39,49.93,75.44,50.21z"/>
	<path class="st1" d="M58.95,48.32c-0.96-0.85-1.79-1.85-2.45-2.99l-0.87,2.49C56.73,47.99,57.84,48.16,58.95,48.32z"/>
	<path class="st1" d="M62.56,61.39l0.2-1.73l-0.37-0.37h-1.37c-0.16,0-0.3,0-0.43-0.01c0.41,0.7,0.82,1.41,1.23,2.12
		C62.06,61.4,62.31,61.4,62.56,61.39z"/>
	<path class="st1" d="M53.29,52.28l-1.66,4.75c-0.25,0.71-0.56,1.24-0.95,1.61c-0.39,0.37-0.86,0.63-1.43,0.77l-0.2,2.09
		c3.86-0.01,7.71-0.05,11.57-0.09c-0.41-0.7-0.82-1.41-1.23-2.12c-0.4-0.02-0.67-0.08-0.82-0.17c-0.19-0.12-0.29-0.38-0.29-0.77
		c0-0.16,0.03-0.4,0.09-0.71C56.95,55.39,55.35,53.41,53.29,52.28z"/>
	<path class="st1" d="M67.25,59.08c-0.39,0.07-1.09,0.16-2.11,0.26L65,61.36c4.78-0.06,9.56-0.13,14.35-0.17l0.15-1.42l-0.26-0.37
		c-0.78-0.07-1.37-0.32-1.8-0.74c-0.42-0.42-0.77-1.11-1.06-2.06c-0.33-1.04-0.74-2.43-1.24-4.16c-5.21,1.79-11.97,0.81-16.2-2.93
		c-1.11-0.16-2.21-0.33-3.32-0.5l-1.14,3.26c2.06,1.13,3.65,3.12,5.09,5.36c0.02-0.09,0.04-0.19,0.06-0.3l0.63-2.11
		c0.28,0,0.74-0.03,1.37-0.11c1.06-0.07,1.83-0.11,2.32-0.11c1.62,0,2.82,0.02,3.59,0.05l0.48,2.01c0.03,0.14,0.07,0.29,0.11,0.45
		c0.03,0.16,0.05,0.31,0.05,0.45c0,0.35-0.06,0.61-0.18,0.77C67.89,58.9,67.63,59.01,67.25,59.08z"/>
	<path class="st1" d="M62.56,61.39c-0.25,0-0.49,0-0.74,0.01c0.21,0.36,0.41,0.71,0.62,1.06L62.56,61.39z"/>
	<path class="st1" d="M61.22,62c-3.86,0.05-7.71,0.08-11.57,0.09l-0.12,1.24h5.6c1.48,0,2.85,0.02,4.12,0.05
		c1.27,0.03,2.11,0.07,2.54,0.11l0.05-0.43C61.63,62.7,61.43,62.35,61.22,62z"/>
	<path class="st1" d="M65,61.96l-0.08,1.26l0.32,0.32c0.46-0.04,1.5-0.08,3.12-0.13c1.62-0.05,3.26-0.08,4.91-0.08l5.92,0.05
		l0.17-1.59C74.57,61.83,69.78,61.9,65,61.96z"/>
	<path class="st1" d="M94.6,52.5c2.53,0,5.32,0.4,8.12,0.82l-1.35-2.05c1.76-0.95,3.11-2.09,4.04-3.41c0.93-1.32,1.4-2.79,1.4-4.41
		c0-1.42-0.32-2.63-0.95-3.65c-1.14,0.77-2.63,2.09-4.12,2.59c-1.05,0.3-2.1,0.59-3.14,0.88c0.08,0.32,0.12,0.66,0.12,1.03
		c0,1.2-0.26,2.13-0.79,2.8c-0.53,0.67-1.27,1.2-2.22,1.58l-3.49-0.42c0-1.04,0.03-2.11,0.08-3.19c-2.7,0.81-5.33,1.69-7.89,2.76
		v4.29C87.8,52.3,91.19,52.44,94.6,52.5z"/>
	<path class="st1" d="M99.79,63.63c0.77,0.58,1.74,0.87,2.91,0.87l6.23-0.42l0.18-1.33c-3.48-0.15-6.95-0.25-10.43-0.31
		C99.02,62.93,99.39,63.33,99.79,63.63z"/>
	<path class="st1" d="M108.88,60.1c-1.41,0-2.89-1.2-4.44-3.59l-1.71-2.6c-2.81-0.42-5.6-0.82-8.12-0.82
		c-3.41-0.06-6.81-0.2-10.19-0.39v3.96c0,1.13-0.21,1.94-0.63,2.43c-0.42,0.49-1.2,0.83-2.32,1l-0.17,1.67
		c4.62-0.03,9.24-0.04,13.86,0.01l0.21-1.58l-0.21-0.32c-0.99-0.03-1.68-0.12-2.09-0.26c-0.41-0.14-0.68-0.4-0.82-0.79
		c-0.14-0.39-0.21-1.02-0.21-1.9l0.05-3.28h2.64l3.06,6.5c0.27,0.65,0.57,1.21,0.9,1.68c3.47,0.06,6.95,0.16,10.43,0.31l0.19-1.47
		L108.88,60.1z"/>
	<path class="st1" d="M81.28,62.37l-0.2,1.87c0.46-0.04,1.44-0.11,2.96-0.21c1.51-0.11,2.91-0.16,4.17-0.16
		c1.23,0,2.53,0.03,3.88,0.08s2.3,0.08,2.83,0.08l0.22-1.64C90.52,62.33,85.9,62.33,81.28,62.37z"/>
	<path class="st1" d="M92.55,39.76c0-0.39,0.05-0.64,0.16-0.77c0.11-0.12,0.3-0.18,0.58-0.18c1.87,0,3.24,0.3,4.12,0.9
		c0.62,0.42,1.02,1.02,1.2,1.77c1.04-0.29,2.08-0.58,3.14-0.88c1.49-0.5,2.98-1.82,4.12-2.59c-0.48-0.78-1.12-1.45-1.96-2
		c-1.94-1.27-4.81-1.9-8.61-1.9c-0.6,0.04-1.67,0.09-3.22,0.16c-1.55,0.07-3.01,0.11-4.39,0.11l-5.97-0.05l-0.42,3.06l0.37,0.42
		l1.53-0.05c0.46,0,0.77,0.13,0.95,0.4c0.18,0.26,0.26,0.75,0.26,1.45v6.44c2.56-1.07,5.19-1.95,7.89-2.76
		C92.36,42.13,92.44,40.95,92.55,39.76z"/>
	<path class="st1" d="M127.8,34.89c-1.93,0.05-4.1,0.08-6.51,0.08c-2.04,0-3.97-0.02-5.78-0.05c-1.81-0.03-3.04-0.05-3.67-0.05
		l-0.3,2.45c5.16-0.43,10.67,0.2,15.53-1.1C127.3,35.77,127.55,35.33,127.8,34.89z"/>
	<path class="st1" d="M123.05,51.72c0.11-0.01,0.23-0.02,0.35-0.04c0.67-0.07,1.32-0.11,1.96-0.11c1.13,0,2.21,0.02,3.25,0.05
		c1.04,0.04,1.73,0.05,2.09,0.05l0.63-4.44l-0.48-0.53c-0.39,0.04-1.07,0.09-2.06,0.16c-0.99,0.07-1.92,0.11-2.8,0.11h-2.51
		C123.18,48.54,123.03,50.12,123.05,51.72z"/>
	<path class="st1" d="M111.29,39.59l1.22-0.05c0.49,0,0.83,0.15,1,0.45c0.18,0.3,0.26,0.89,0.26,1.77l-0.05,12.59
		c2.56,0.06,5.11,0.12,7.66,0.18c0.01-0.99,0.02-1.9,0.05-2.73c0.2,0,0.54-0.02,1.02-0.07c-0.02-1.6,0.13-3.18,0.43-4.74h-1.24
		l0.26-5.12c0-0.49,0.11-0.81,0.32-0.95c0.21-0.14,0.7-0.21,1.48-0.21c0.42,0,0.81,0.01,1.16,0.02c0.48-1.12,1.02-2.22,1.6-3.31
		c-4.87,1.3-10.38,0.67-15.53,1.1l-0.07,0.56L111.29,39.59z"/>
	<path class="st1" d="M130.66,35.97c-0.89,0.04-1.84,0.08-2.86,0.1c-0.25,0.44-0.5,0.88-0.74,1.33
		C128.31,37.07,129.52,36.61,130.66,35.97z"/>
	<path class="st1" d="M127.44,63.38c-1.61-0.72-2.94-1.92-3.67-3.73c-0.08-0.24-0.15-0.47-0.23-0.71c-0.62-0.01-1.08-0.07-1.37-0.18
		c-0.32-0.12-0.53-0.34-0.63-0.66c-0.11-0.32-0.16-0.86-0.16-1.64c0-0.46,0-0.9,0.01-1.33c-2.55-0.05-5.11-0.11-7.66-0.18
		l-0.01,1.62c0,1.2-0.2,2.05-0.61,2.56c-0.41,0.51-1.17,0.85-2.3,1.03l-0.25,2.08c2.22,0.11,4.44,0.23,6.66,0.38
		c2.5,0.22,4.99,0.46,7.49,0.7c0.87,0.02,1.74,0.03,2.64,0.05C127.38,63.38,127.41,63.38,127.44,63.38z"/>
	<path class="st1" d="M125.46,40.72c0.79,0.03,1.41,0.08,1.85,0.17c0.63,0.12,1.07,0.34,1.29,0.66c0.23,0.32,0.34,0.81,0.34,1.48
		c0,0.32-0.02,0.63-0.05,0.95c-0.04,0.32-0.05,0.53-0.05,0.63l5.39-0.37c0.07-1.62,0.23-3.25,0.48-4.89
		c0.25-1.64,0.42-2.69,0.53-3.14l-0.48-0.53c-1.15,0.12-2.52,0.22-4.1,0.29c-1.15,0.64-2.35,1.1-3.6,1.43
		C126.48,38.49,125.94,39.6,125.46,40.72z"/>
	<path class="st1" d="M135.34,53.52l-0.42-0.58l-4.97,0.37c-0.04,0.27-0.09,0.52-0.14,0.77c1.8,0.03,3.6,0.05,5.4,0.07
		C135.27,53.88,135.31,53.67,135.34,53.52z"/>
	<path class="st1" d="M111.16,62.83l-0.17,1.46c0.49-0.04,1.62-0.11,3.38-0.24c1.76-0.12,3.54-0.18,5.34-0.18
		c1.8,0,3.67,0.02,5.6,0.05c-2.5-0.24-4.99-0.48-7.49-0.7C115.6,63.07,113.38,62.94,111.16,62.83z"/>
	<path class="st1" d="M128.17,58.03c-0.71,0.21-1.8,0.32-3.28,0.32c-0.06,0-0.1,0-0.16,0c0.08,0.24,0.14,0.47,0.23,0.71
		c0.73,1.82,2.06,3.02,3.67,3.73c2.83,0.07,4.67,0.12,5.51,0.16l0.63-0.58c0.14-1.8,0.34-3.5,0.61-5.12c0.18-1.1,0.32-1.93,0.43-2.5
		c-1.8-0.02-3.6-0.04-5.4-0.07c-0.19,0.95-0.42,1.66-0.68,2.14C129.4,57.41,128.88,57.82,128.17,58.03z"/>
	<path class="st1" d="M165.77,33.7c-1.48,0.05-2.87,0.08-4.17,0.08c-4.37,0-6.55-0.02-6.55-0.05l-0.37,2.96l0.37,0.48h1.22
		c0.63,0,1.06,0.14,1.27,0.42c0.21,0.28,0.32,0.85,0.32,1.69l-0.02,2.13c1.78-1.26,3.7-2.35,5.83-3.19
		c1.55-0.52,4.43-1.93,5.18-4.62l0-0.03C168.27,33.6,167.25,33.64,165.77,33.7z"/>
	<path class="st1" d="M145.86,52.41c1.33-1.43,2.66-2.91,4.02-4.35c-0.58-0.32-1.15-0.63-1.7-0.91c-4.17-2.38-4.76-8.33-2.38-11.91
		c0.34-0.59,0.74-1.08,1.18-1.51c-1.12,0.03-2.23,0.05-3.3,0.05l-5.49-0.05l-0.37,2.96l0.37,0.48h1.21c0.6,0,1,0.14,1.22,0.42
		c0.21,0.28,0.32,0.85,0.32,1.69V52.4C142.57,52.41,144.22,52.41,145.86,52.41z"/>
	<path class="st1" d="M148.78,47.14c0.55,0.28,1.12,0.58,1.7,0.91c1.1-1.16,2.22-2.31,3.39-3.4c-0.06,0-0.13,0-0.19,0l-4.33-0.16
		l0.26-5.18c0.03-0.85,0.19-1.41,0.47-1.69s0.92-0.49,1.9-0.63l0.26-3.43c-0.6,0.04-1.7,0.08-3.3,0.13
		c-0.46,0.02-0.92,0.02-1.37,0.03c-0.44,0.42-0.83,0.92-1.18,1.51C144.01,38.81,144.61,44.76,148.78,47.14z"/>
	<path class="st1" d="M163.66,39.41c-2.14,0.83-4.06,1.92-5.83,3.19l-0.03,3.05c-0.95,0.14-2.26,0.21-3.93,0.21
		c-1.17,1.09-2.29,2.23-3.39,3.4c0.7,0.39,1.43,0.82,2.16,1.26c0.69-0.05,1.32-0.08,1.88-0.11l3.28,0.05v3.03
		c2.56-0.05,5.11-0.11,7.67-0.2c0.03-4.78,0.19-9.09,0.47-12.93c0.07-0.81,0.26-1.35,0.58-1.61c0.32-0.26,1-0.47,2.06-0.61
		l0.26-3.35C168.09,37.48,165.21,38.89,163.66,39.41z"/>
	<path class="st1" d="M140.94,58.64c-0.39,0.44-1.18,0.77-2.38,0.98l-0.23,2.46c0.33-0.2,0.64-0.41,0.92-0.64
		c2.61-1.86,4.93-4.19,7.21-6.64c-1.64,0-3.29,0.01-4.94,0v1.45C141.52,57.39,141.33,58.2,140.94,58.64z"/>
	<path class="st1" d="M157.8,57.26c0,1.23-0.22,2.09-0.66,2.56c-0.44,0.48-1.21,0.71-2.3,0.71l-0.32,3.38l6.87-0.05l7.08,0.05
		l0.42-3.17l-0.37-0.42c-0.07,0-0.23,0.02-0.48,0.05c-0.25,0.04-0.53,0.05-0.85,0.05c-0.63,0-1.08-0.19-1.35-0.58
		c-0.17-0.25-0.28-0.65-0.34-1.17c-2.49-0.27-5.12-1.41-7.72-2.81V57.26z"/>
	<path class="st1" d="M157.8,54.69c2.6,1.4,5.23,2.54,7.72,2.81c-0.03-0.29-0.06-0.62-0.06-1c0-0.68,0-1.36,0.01-2.02
		c-2.56,0.08-5.11,0.15-7.67,0.2V54.69z"/>
	<path class="st1" d="M139.25,62.62c-0.28,0.23-0.59,0.44-0.92,0.64l-0.08,0.87c0.49-0.07,1.5-0.13,3.01-0.18
		c1.51-0.05,2.89-0.08,4.12-0.08c1.16,0,2.4,0.03,3.72,0.08c1.32,0.05,2.25,0.08,2.77,0.08l0.37-3.22l-0.26-0.42
		c-0.07,0.04-0.23,0.07-0.48,0.11c-0.25,0.04-0.53,0.05-0.85,0.05c-0.6,0-1-0.19-1.22-0.58c-0.21-0.39-0.32-1.14-0.32-2.27
		l0.02-1.72c-0.9,0.01-1.79,0.01-2.69,0.01C144.18,58.43,141.86,60.76,139.25,62.62z"/>
	<path class="st1" d="M151.56,51.77c0.38-0.03,0.73-0.05,1.08-0.08c-0.73-0.44-1.46-0.86-2.16-1.26c-1.36,1.45-2.68,2.92-4.02,4.35
		c0.9,0,1.79-0.01,2.69-0.01l0.03-2.82C149.64,51.92,150.43,51.86,151.56,51.77z"/>
	<path class="st1" d="M195.82,37.2c-0.71-0.71-1.53-1.29-2.44-1.76c-0.95,1.08-1.94,2.04-2.94,2.78c-0.85,0.64-1.65,1.27-2.42,1.9
		c0.38,0.36,0.71,0.81,0.98,1.36c0.79,1.6,1.19,4.24,1.19,7.9c0,0.71-0.03,1.36-0.09,1.96c2.9-0.24,5.8-0.51,8.7-0.81
		c0.21-1.13,0.32-2.34,0.32-3.63C199.12,42.63,198.02,39.4,195.82,37.2z"/>
	<path class="st1" d="M190.7,53.14c2.19,1.83,4.2,3.74,5.3,6.1c1.77-1.81,2.9-4.13,3.41-6.93c-2.9,0.3-5.8,0.57-8.7,0.81
		C190.7,53.13,190.7,53.13,190.7,53.14z"/>
	<path class="st1" d="M173.75,54.14c-0.65,0.03-1.31,0.06-1.96,0.09c0.09,0.4,0.21,0.78,0.33,1.16
		C172.67,54.98,173.21,54.56,173.75,54.14z"/>
	<path class="st1" d="M173.4,52.75c-1.14-2.25-1.98-4.75-2.43-7.28c-0.16,1.03-0.25,2.12-0.25,3.28c0,1.56,0.15,2.99,0.46,4.29
		c0.65-0.03,1.31-0.06,1.96-0.09C173.23,52.89,173.32,52.82,173.4,52.75z"/>
	<path class="st1" d="M184.63,38.48c1.14,0,2.06,0.35,2.8,1.05c0.77-0.63,1.57-1.27,2.42-1.9c1-0.75,1.99-1.71,2.94-2.78
		c-1.93-1.02-4.31-1.54-7.15-1.54c-1.07,0-2.07,0.07-3.02,0.21c-1.89,1.45-2.93,3.51-2.29,6.49c0.12,0.52,0.28,1.01,0.47,1.49
		c0.15-0.5,0.34-0.93,0.56-1.29C182.06,39.05,183.15,38.48,184.63,38.48z"/>
	<path class="st1" d="M180.31,45.95c0-0.1,0-0.19,0-0.29c0-1.71,0.17-3.1,0.5-4.17c-0.19-0.48-0.35-0.97-0.47-1.49
		c-0.64-2.98,0.4-5.04,2.29-6.49c-3.11,0.45-5.63,1.61-7.54,3.51c-1.86,1.85-3.03,4.27-3.5,7.26c0.45,2.53,1.28,5.03,2.43,7.28
		C176.26,49.76,178.27,47.88,180.31,45.95z"/>
	<path class="st1" d="M187.68,62.68c0.2,0.02,0.4,0.03,0.6,0.05c0.31-0.07,0.61-0.14,0.91-0.22
		C188.68,62.56,188.18,62.62,187.68,62.68z"/>
	<path class="st1" d="M179.73,61.43c-2.24-1.5-4.18-3.89-5.65-6.71c-0.11,0.01-0.23,0.01-0.34,0.02c-0.53,0.42-1.07,0.84-1.64,1.25
		c0.56,1.7,1.41,3.15,2.57,4.33c2.17,2.22,5.24,3.36,9.2,3.42c1.27-0.15,2.54-0.31,3.81-0.46C184.41,63,181.04,62.21,179.73,61.43z"
		/>
	<path class="st1" d="M183.87,63.14c0.12,0,0.22,0.01,0.34,0.01c1.46,0,2.81-0.15,4.06-0.42c-0.2-0.01-0.4-0.03-0.6-0.05
		C186.41,62.83,185.14,62.99,183.87,63.14z"/>
	<path class="st1" d="M173.75,54.14c0.11-0.01,0.23-0.01,0.34-0.02c-0.03-0.06-0.06-0.12-0.09-0.18
		C173.91,54.01,173.83,54.08,173.75,54.14z"/>
	<path class="st1" d="M189.51,53.14c-0.15,1.51-0.49,2.69-1.01,3.52c-0.74,1.16-1.87,1.74-3.38,1.74c-1.69,0-2.91-0.81-3.67-2.43
		c-0.28-0.6-0.51-1.34-0.68-2.21c-2.22,0.14-4.45,0.26-6.67,0.37c1.46,2.82,3.4,5.21,5.65,6.71c1.31,0.78,4.68,1.57,7.95,1.85
		c0.5-0.06,1.01-0.12,1.51-0.18c2.18-0.62,4.04-1.67,5.54-3.18c0.03-0.03,0.05-0.06,0.08-0.09C193.7,56.88,191.7,54.97,189.51,53.14
		z"/>
	<path class="st1" d="M180.31,47.14c-2.03,1.92-4.05,3.8-6.31,5.61c0.03,0.06,0.06,0.12,0.09,0.18c2.22-0.11,4.45-0.23,6.67-0.37
		C180.47,51.13,180.32,49.32,180.31,47.14z"/>
	<path class="st1" d="M218.78,48.37c0.85-0.14,1.7-0.28,2.55-0.43c1.09-1.81,2.41-3.56,3.88-5.15v-2.65c0-0.33,0.05-0.59,0.15-0.8
		c-2.51-0.78-4.63-0.38-6.67,0.5c0.01,0.21,0.02,0.45,0.02,0.72L218.78,48.37z"/>
	<path class="st1" d="M211.07,43.45l0.08-3.69c0.07-0.67,0.26-1.16,0.58-1.48c0.32-0.32,0.86-0.49,1.64-0.53l0.42-3.59
		c-0.42,0.04-1.2,0.08-2.32,0.13c-1.13,0.05-2.24,0.08-3.33,0.08c-1.05,0-2.05-0.01-2.99-0.02c1.5,3.45,2.07,7.37,3,11.21
		C209.08,44.78,210.06,44.08,211.07,43.45z"/>
	<path class="st1" d="M218.81,54.62c-0.04,0.93-0.22,1.68-0.56,2.24c-0.1,0.54-0.17,1.07-0.22,1.6c2.22-0.42,4.42-0.89,6.6-1.4
		c0.38-1.13,0.58-2.41,0.58-3.84v-4.79c-1.29,0.24-2.59,0.47-3.88,0.7C220.25,50.92,219.39,52.77,218.81,54.62z"/>
	<path class="st1" d="M200.31,34.86l-0.42,3.38l0.11,0.16l1.27-0.05c0.56,0,0.92,0.14,1.08,0.42c0.16,0.28,0.24,0.88,0.24,1.8v10
		c0.21-0.03,0.42-0.05,0.64-0.07c1.35-1.58,2.79-3.05,4.34-4.34c-0.93-3.84-1.5-7.77-3-11.21c-0.51-0.01-1.01-0.02-1.5-0.03
		C201.68,34.88,200.77,34.86,200.31,34.86z"/>
	<path class="st1" d="M209.19,51c0.59-0.08,1.17-0.17,1.76-0.25l0.12-5.51c-1.02,0.62-1.99,1.33-2.92,2.11
		C208.45,48.58,208.78,49.8,209.19,51z"/>
	<path class="st1" d="M225.21,48.43v-4.45c-1.47,1.6-2.78,3.34-3.88,5.15C222.62,48.91,223.91,48.67,225.21,48.43z"/>
	<path class="st1" d="M217.65,57.46c-0.11,0.19-0.24,0.36-0.38,0.5c-0.5,0.51-1.2,0.81-2.11,0.92c-0.64,0.74-1.58,0.67-2.09,0.16
		c-0.14-0.14-0.27-0.28-0.4-0.42c-0.28-0.12-0.54-0.27-0.77-0.45c-3-0.17-5.9-0.15-8.87,0.15c0.33,1.11,0.85,2.05,1.56,2.8
		c4.32-0.59,8.61-1.26,12.84-2.07C217.47,58.53,217.55,58,217.65,57.46z"/>
	<path class="st1" d="M217.36,59.45c-4.23,0.81-8.52,1.48-12.84,2.07c0.17,0.18,0.34,0.35,0.53,0.5c1.69,1.41,4.37,2.11,8.03,2.11
		c1.71,0,3.22-0.18,4.55-0.53C217.31,62.28,217.23,60.88,217.36,59.45z"/>
	<path class="st1" d="M210.89,53.48l0.06-2.74c-0.59,0.08-1.17,0.17-1.76,0.25c0.49,1.42,1.09,2.8,1.88,4.12
		C210.96,54.62,210.89,54.08,210.89,53.48z"/>
	<path class="st1" d="M210.76,57.05c-0.43-0.52-0.71-1.18-0.88-1.93c-0.79-1.32-1.39-2.7-1.88-4.12c-1.79,0.24-3.59,0.47-5.38,0.68
		c-0.21,0.25-0.43,0.5-0.64,0.76v2c0,1.24,0.15,2.33,0.44,3.3c2.97-0.3,5.88-0.32,8.87-0.15C211.1,57.43,210.92,57.25,210.76,57.05z
		"/>
	<path class="st1" d="M213.26,58.03c0.13,0.14,0.26,0.28,0.4,0.42c0.51,0.51,1.46,0.58,2.09-0.16c-0.25,0.03-0.51,0.05-0.8,0.05
		C214.32,58.34,213.76,58.24,213.26,58.03z"/>
	<path class="st1" d="M203.18,51.75v0.69c0.21-0.26,0.42-0.51,0.64-0.76C203.6,51.7,203.39,51.73,203.18,51.75z"/>
	<path class="st1" d="M225.36,38.16c0.07-0.15,0.16-0.28,0.27-0.37c0.28-0.21,0.9-0.46,1.85-0.74l0.32-3.43
		c-0.39,0.04-1.14,0.07-2.25,0.11c-1.11,0.04-2.33,0.05-3.67,0.05c-0.99,0-2-0.02-3.04-0.05c-1.04-0.03-1.75-0.05-2.14-0.05
		l-0.48,3.38l0.11,0.16l1.22-0.05c0.46,0,0.77,0.15,0.92,0.45c0.11,0.21,0.18,0.57,0.21,1.05
		C220.73,37.77,222.85,37.38,225.36,38.16z"/>
	<path class="st1" d="M208.15,47.34c-1.55,1.29-2.99,2.76-4.34,4.34c1.79-0.22,3.59-0.44,5.38-0.68
		C208.78,49.8,208.45,48.58,208.15,47.34z"/>
	<path class="st1" d="M224.95,58.09c-2.18,0.51-4.39,0.98-6.6,1.4c-0.12,1.43-0.05,2.83,0.27,4.16c1.61-0.42,2.95-1.08,4.01-2.01
		C223.7,60.7,224.47,59.51,224.95,58.09z"/>
	<path class="st1" d="M218.81,54.62c0.58-1.85,1.45-3.7,2.52-5.49c-0.85,0.15-1.7,0.29-2.55,0.43l0.04,4.72
		C218.82,54.39,218.81,54.51,218.81,54.62z"/>
	<path class="st1" d="M245.33,44l-0.04,0.72l0.53,0.32l4.44-0.32c0.05-0.59,0.12-1.17,0.2-1.74c-1.16,0.12-2.31,0.31-3.45,0.6
		C246.44,43.72,245.89,43.86,245.33,44z"/>
	<path class="st1" d="M230.65,53.96c-0.01,0.5-0.05,1.03-0.1,1.57c1.67-0.47,3.32-0.99,4.97-1.54c0-0.13-0.01-0.26-0.01-0.4
		L230.65,53.96z"/>
	<path class="st1" d="M236.83,51.9l1.53,0.63c0.2,0.08,0.4,0.16,0.59,0.24c1.69-0.63,3.36-1.31,5.02-2.04
		c-0.48-1.64-1.19-3.23-2.06-4.79c-0.6-0.27-1.11-0.51-1.54-0.73c-3.21,0.76-6.41,1.47-9.61,2.13c0.28,0.54,0.65,1.02,1.1,1.46
		C233.06,49.95,234.72,50.98,236.83,51.9z"/>
	<path class="st1" d="M240.41,43.14c-0.86-0.49-1.29-1.14-1.29-1.95c0-0.52,0.22-0.95,0.63-1.31c-1.11-1.55-2.3-3.11-3.5-4.68
		c-1.68,0.7-3,1.64-3.98,2.82c-1.07,1.3-1.61,2.8-1.61,4.49c0,1.16,0.23,2.18,0.69,3.06c3.2-0.65,6.41-1.36,9.61-2.13
		C240.76,43.33,240.57,43.23,240.41,43.14z"/>
	<path class="st1" d="M240.04,39.65c0.62-0.39,1.4-0.58,2.35-0.58c2.36,0,3.54,1,3.54,3.01l-0.01,0.13
		c0.56-0.14,1.11-0.28,1.67-0.43c1.13-0.28,2.28-0.47,3.45-0.6c0.12-0.92,0.25-1.83,0.41-2.7c0.26-1.41,0.45-2.31,0.55-2.69
		L251.53,35c-0.18-0.07-0.62-0.19-1.32-0.37c-0.71-0.18-1.66-0.34-2.85-0.5c-1.2-0.16-2.48-0.24-3.86-0.24
		c-2.54,0-4.77,0.36-6.71,1.08c-0.19,0.07-0.36,0.14-0.54,0.22c1.2,1.58,2.39,3.13,3.5,4.68C239.84,39.8,239.93,39.72,240.04,39.65z
		"/>
	<path class="st1" d="M243.97,51.93c-1.66,0.73-3.33,1.4-5.02,2.04c1.36,0.57,2.37,1.07,3.03,1.5c0.76,0.49,1.14,1.11,1.14,1.85
		c0,0.63-0.31,1.14-0.92,1.51s-1.47,0.55-2.56,0.55c-1.44,0-2.49-0.35-3.14-1.06c-0.6-0.65-0.92-1.7-0.97-3.14
		c-1.64,0.55-3.3,1.06-4.97,1.54c-0.07,0.76-0.16,1.55-0.3,2.39c-0.23,1.44-0.4,2.4-0.5,2.85l0.48,0.69
		c0.18,0.11,0.62,0.29,1.35,0.55c0.72,0.26,1.7,0.52,2.93,0.77c1.23,0.25,2.59,0.37,4.07,0.37c1.49,0,2.87-0.11,4.13-0.31
		c0.04-0.07,0.09-0.14,0.13-0.22C244.92,59.4,245.01,55.54,243.97,51.93z"/>
	<path class="st1" d="M244.56,51.93c1.05,3.61,0.95,7.47-1.14,11.88c-0.04,0.07-0.09,0.14-0.13,0.22c2.16-0.36,3.98-1.02,5.46-1.98
		c2.34-1.53,3.51-3.6,3.51-6.21c0-1.97-0.67-3.51-2.01-4.62c-0.36-0.29-0.75-0.58-1.18-0.87c-1.55,0.5-3.06,1-4.47,1.56
		C244.6,51.91,244.58,51.92,244.56,51.93z"/>
	<path class="st1" d="M241.91,45.95c0.87,1.56,1.58,3.15,2.06,4.79c0.02-0.01,0.04-0.02,0.06-0.02c1.41-0.56,2.92-1.06,4.47-1.56
		c-1.18-0.79-2.64-1.55-4.37-2.27C243.28,46.54,242.55,46.23,241.91,45.95z"/>
	<path class="st1" d="M265.09,35.22c-2.22-1.89-4.79-3.3-7.58-4.32c-0.05,3.58,0.47,7.2,1.43,10.76c0.62,0.02,1.23,0.03,1.84,0.04
		c0.38-0.35,0.75-0.72,1.1-1.11c1.11-1.33,2.13-2.57,3.13-3.8l0.05-1.18C265.07,35.47,265.08,35.34,265.09,35.22z"/>
	<path class="st1" d="M279.58,29.81l-0.52-0.65c-1.53,0.18-3.4,0.32-5.6,0.42c-0.95,0.57-1.84,1.29-2.65,2.09
		c-1.08,1.29-2.08,2.51-3.06,3.7c1.44,0,2.49,0.08,3.17,0.23c0.69,0.15,1.16,0.43,1.41,0.82c0.25,0.39,0.38,1,0.38,1.83
		c0,0.39-0.02,0.78-0.06,1.18c-0.04,0.39-0.06,0.65-0.06,0.79l3.03-0.24c0.9-0.53,1.91-0.96,2.92-1.38
		c0.09-1.62,0.24-3.25,0.46-4.89C279.28,31.67,279.47,30.38,279.58,29.81z"/>
	<path class="st1" d="M261.97,42.3c1.35,0.03,2.69,0.03,4.01-0.04l0.22-4.87c-1,1.22-2.03,2.47-3.13,3.8
		C262.72,41.58,262.35,41.95,261.97,42.3z"/>
	<path class="st1" d="M259.9,44.11c0.51-0.38,1-0.78,1.48-1.21c-0.61-0.01-1.23-0.03-1.84-0.04
		C259.65,43.27,259.78,43.69,259.9,44.11z"/>
	<path class="st1" d="M278.49,39.75c0.01-0.39,0.04-0.77,0.06-1.16c-1.02,0.42-2.02,0.85-2.92,1.38L278.49,39.75z"/>
	<path class="st1" d="M272.8,62.71c3.16,0.09,5.2,0.15,6.12,0.2l0.69-0.72c0.15-2.22,0.38-4.34,0.66-6.34
		c0.29-2.01,0.49-3.29,0.61-3.86l-0.46-0.72L275,51.72c-0.23,1.66-0.53,2.86-0.9,3.6c-0.37,0.74-0.93,1.24-1.7,1.5
		c-0.77,0.26-1.96,0.39-3.58,0.39c-0.77,0-1.33-0.08-1.68-0.23c-0.12-0.05-0.21-0.12-0.3-0.2c1.25,2.05,2.61,4.02,4.06,5.87
		C271.53,62.67,272.16,62.69,272.8,62.71z"/>
	<path class="st1" d="M272.46,48.88c0.36,0.01,0.72,0.02,1.07,0.03c1.14,0.04,1.9,0.07,2.28,0.07l0.69-5.49l-0.52-0.65
		c-0.42,0.04-1.17,0.11-2.25,0.2c-0.57,0.05-1.12,0.08-1.65,0.1C273.03,44.82,273.05,46.87,272.46,48.88z"/>
	<path class="st1" d="M261.49,63.19c0.37-0.01,0.74-0.02,1.12-0.02c2.27,0,4.64,0.03,7.1,0.08c-1.44-1.85-2.81-3.82-4.06-5.87
		c-0.02-0.01-0.03-0.03-0.05-0.04C264.04,59.15,262.64,61.06,261.49,63.19z"/>
	<path class="st1" d="M265.38,43.15l0.01-0.29c-1.32,0.07-2.66,0.06-4.01,0.04c-0.47,0.43-0.96,0.83-1.48,1.21
		c1.26,4.17,3.11,8.23,5.35,12.01c-0.11-0.4-0.16-1.05-0.16-1.98c0-1.87,0.02-3.55,0.06-5.04c0.27,0,0.77-0.04,1.5-0.13
		c0.73-0.09,1.44-0.13,2.14-0.13c0.85,0,1.67,0.01,2.48,0.04c0.6-2,0.58-4.06-0.38-5.76c-0.48,0.02-0.95,0.03-1.41,0.03H265.38z"/>
	<path class="st1" d="M264.67,56.17c0-0.01-0.01-0.04-0.01-0.05c-2.24-3.78-4.09-7.84-5.35-12.01c-0.99,0.73-2.05,1.36-3.16,1.92
		l-0.03,8.25c0,1.48-0.22,2.54-0.66,3.17c-0.44,0.63-1.28,1.06-2.51,1.28l-0.46,4.38c0.54-0.04,1.77-0.14,3.7-0.29
		c1.56-0.12,3.13-0.18,4.72-0.21c1.15-2.13,2.55-4.04,4.11-5.86C264.85,56.59,264.74,56.4,264.67,56.17z"/>
	<path class="st1" d="M253.46,32.8l1.33-0.07c0.54,0,0.9,0.19,1.1,0.56c0.19,0.37,0.29,1.1,0.29,2.19l-0.02,6.1
		c0.93,0.02,1.86,0.05,2.78,0.07c-0.96-3.55-1.48-7.17-1.43-10.76c-1.37-0.5-2.78-0.91-4.24-1.23L253,32.15L253.46,32.8z"/>
	<path class="st1" d="M258.35,42.26c-0.93-0.03-1.86-0.05-2.78-0.07l-0.01,3.25c1.11-0.56,2.17-1.19,3.16-1.92
		C258.59,43.09,258.46,42.68,258.35,42.26z"/>
	<path class="st1" d="M257.64,28.49c-0.07,0-0.15,0-0.22,0c-1.98-0.04-3.32-0.07-4.01-0.07l-0.14,1.26
		c1.46,0.32,2.87,0.73,4.24,1.23C257.52,30.1,257.57,29.29,257.64,28.49z"/>
	<path class="st1" d="M265.09,35.22c0.04-0.39,0.15-0.65,0.33-0.78c0.23-0.17,0.77-0.26,1.62-0.26c0.04,0,0.08,0,0.13,0
		c0.98-1.19,1.98-2.41,3.06-3.7c0.81-0.81,1.7-1.52,2.65-2.09c-2.58,0.11-5.62,0.17-9.12,0.17c-2.15,0-4.18-0.02-6.1-0.06
		c-0.07,0.8-0.12,1.61-0.13,2.41C260.3,31.92,262.88,33.33,265.09,35.22z"/>
	<g>
		<text transform="matrix(1 0 0 1 74.7392 84.1829)" class="st1 st5 st6">escape game</text>
	</g>
</g>
</svg>
